<svg width="288" height="81" viewBox="0 0 288 81" fill="none" xmlns="http://www.w3.org/2000/svg">
<g clip-path="url(#clip0_818_4882)">
<path d="M288 0H0V81H288V0Z" fill="white"/>
<path d="M7.38507 6.75H6.1543V74.25H7.38507V6.75Z" fill="black"/>
<path d="M12.3079 6.75H11.0771V74.25H12.3079V6.75Z" fill="black"/>
<path d="M17.2314 6.75H13.5391V74.25H17.2314V6.75Z" fill="black"/>
<path d="M22.1542 6.75H18.4619V74.25H22.1542V6.75Z" fill="black"/>
<path d="M24.6155 6.75H23.3848V74.25H24.6155V6.75Z" fill="black"/>
<path d="M29.539 6.75H25.8467V74.25H29.539V6.75Z" fill="black"/>
<path d="M32.0003 6.75H30.7695V74.25H32.0003V6.75Z" fill="black"/>
<path d="M36.9232 6.75H35.6924V74.25H36.9232V6.75Z" fill="black"/>
<path d="M39.3851 6.75H38.1543V74.25H39.3851V6.75Z" fill="black"/>
<path d="M44.3085 6.75H40.6162V74.25H44.3085V6.75Z" fill="black"/>
<path d="M46.7698 6.75H45.5391V74.25H46.7698V6.75Z" fill="black"/>
<path d="M51.6923 6.75H48V74.25H51.6923V6.75Z" fill="black"/>
<path d="M56.6155 6.75H55.3848V74.25H56.6155V6.75Z" fill="black"/>
<path d="M59.0774 6.75H57.8467V74.25H59.0774V6.75Z" fill="black"/>
<path d="M64.0009 6.75H60.3086V74.25H64.0009V6.75Z" fill="black"/>
<path d="M68.9238 6.75H65.2314V74.25H68.9238V6.75Z" fill="black"/>
<path d="M73.8466 6.75H70.1543V74.25H73.8466V6.75Z" fill="black"/>
<path d="M78.7698 6.75H77.5391V74.25H78.7698V6.75Z" fill="black"/>
<path d="M81.2308 6.75H80V74.25H81.2308V6.75Z" fill="black"/>
<path d="M83.6927 6.75H82.4619V74.25H83.6927V6.75Z" fill="black"/>
<path d="M86.1546 6.75H84.9238V74.25H86.1546V6.75Z" fill="black"/>
<path d="M88.6155 6.75H87.3848V74.25H88.6155V6.75Z" fill="black"/>
<path d="M96.0009 6.75H92.3086V74.25H96.0009V6.75Z" fill="black"/>
<path d="M98.4622 6.75H97.2314V74.25H98.4622V6.75Z" fill="black"/>
<path d="M103.385 6.75H99.6924V74.25H103.385V6.75Z" fill="black"/>
<path d="M108.309 6.75H104.616V74.25H108.309V6.75Z" fill="black"/>
<path d="M110.77 6.75H109.539V74.25H110.77V6.75Z" fill="black"/>
<path d="M118.154 6.75H114.462V74.25H118.154V6.75Z" fill="black"/>
<path d="M120.616 6.75H119.385V74.25H120.616V6.75Z" fill="black"/>
<path d="M123.077 6.75H121.847V74.25H123.077V6.75Z" fill="black"/>
<path d="M125.539 6.75H124.309V74.25H125.539V6.75Z" fill="black"/>
<path d="M130.462 6.75H126.77V74.25H130.462V6.75Z" fill="black"/>
<path d="M137.847 6.75H134.154V74.25H137.847V6.75Z" fill="black"/>
<path d="M140.308 6.75H139.077V74.25H140.308V6.75Z" fill="black"/>
<path d="M142.77 6.75H141.539V74.25H142.77V6.75Z" fill="black"/>
<path d="M145.231 6.75H144V74.25H145.231V6.75Z" fill="black"/>
<path d="M147.693 6.75H146.462V74.25H147.693V6.75Z" fill="black"/>
<path d="M152.616 6.75H151.385V74.25H152.616V6.75Z" fill="black"/>
<path d="M157.539 6.75H153.847V74.25H157.539V6.75Z" fill="black"/>
<path d="M162.462 6.75H158.77V74.25H162.462V6.75Z" fill="black"/>
<path d="M167.385 6.75H163.692V74.25H167.385V6.75Z" fill="black"/>
<path d="M169.847 6.75H168.616V74.25H169.847V6.75Z" fill="black"/>
<path d="M174.77 6.75H173.539V74.25H174.77V6.75Z" fill="black"/>
<path d="M179.692 6.75H176V74.25H179.692V6.75Z" fill="black"/>
<path d="M182.155 6.75H180.924V74.25H182.155V6.75Z" fill="black"/>
<path d="M184.616 6.75H183.385V74.25H184.616V6.75Z" fill="black"/>
<path d="M189.539 6.75H185.847V74.25H189.539V6.75Z" fill="black"/>
<path d="M194.462 6.75H193.231V74.25H194.462V6.75Z" fill="black"/>
<path d="M199.385 6.75H195.692V74.25H199.385V6.75Z" fill="black"/>
<path d="M201.847 6.75H200.616V74.25H201.847V6.75Z" fill="black"/>
<path d="M204.308 6.75H203.077V74.25H204.308V6.75Z" fill="black"/>
<path d="M206.77 6.75H205.539V74.25H206.77V6.75Z" fill="black"/>
<path d="M214.154 6.75H210.462V74.25H214.154V6.75Z" fill="black"/>
<path d="M219.077 6.75H215.385V74.25H219.077V6.75Z" fill="black"/>
<path d="M221.539 6.75H220.309V74.25H221.539V6.75Z" fill="black"/>
<path d="M226.462 6.75H222.77V74.25H226.462V6.75Z" fill="black"/>
<path d="M228.923 6.75H227.692V74.25H228.923V6.75Z" fill="black"/>
<path d="M233.847 6.75H232.616V74.25H233.847V6.75Z" fill="black"/>
<path d="M236.308 6.75H235.077V74.25H236.308V6.75Z" fill="black"/>
<path d="M241.231 6.75H237.539V74.25H241.231V6.75Z" fill="black"/>
<path d="M243.693 6.75H242.462V74.25H243.693V6.75Z" fill="black"/>
<path d="M248.616 6.75H244.924V74.25H248.616V6.75Z" fill="black"/>
<path d="M253.539 6.75H252.309V74.25H253.539V6.75Z" fill="black"/>
<path d="M256 6.75H254.77V74.25H256V6.75Z" fill="black"/>
<path d="M260.924 6.75H257.231V74.25H260.924V6.75Z" fill="black"/>
<path d="M263.385 6.75H262.154V74.25H263.385V6.75Z" fill="black"/>
<path d="M268.308 6.75H267.077V74.25H268.308V6.75Z" fill="black"/>
<path d="M273.231 6.75H269.539V74.25H273.231V6.75Z" fill="black"/>
<path d="M278.154 6.75H274.462V74.25H278.154V6.75Z" fill="black"/>
<path d="M280.616 6.75H279.385V74.25H280.616V6.75Z" fill="black"/>
</g>
<defs>
<clipPath id="clip0_818_4882">
<rect width="288" height="81" fill="white"/>
</clipPath>
</defs>
</svg>
