<svg width="287" height="76" viewBox="0 0 287 76" fill="none" xmlns="http://www.w3.org/2000/svg">
<g clip-path="url(#clip0_818_4833)">
<rect width="287" height="76" rx="4" fill="#F0FAFF"/>
<path d="M62.2666 56.8218L55.7949 58.4661L59.4165 64.077C59.8003 64.6714 60.0632 65.3355 60.1903 66.0314C60.3173 66.7274 60.3061 67.4415 60.1571 68.1331C60.0082 68.8247 59.7244 69.4802 59.3221 70.0622C58.9198 70.6441 58.4068 71.1411 57.8124 71.5248C57.2182 71.9087 56.5541 72.1717 55.8581 72.2989C55.1622 72.4262 54.448 72.415 53.7563 72.2662C53.0646 72.1174 52.4091 71.8337 51.827 71.4315C51.245 71.0293 50.7479 70.5164 50.3641 69.922L42.6765 58.015L42.6453 57.9644L42.5712 57.8443L42.5023 57.7231L42.4473 57.6233C42.4208 57.573 42.3935 57.5207 42.3689 57.4696L42.3379 57.4063L42.2442 57.2099L42.2367 57.1926C42.0272 56.6935 41.8945 56.1657 41.843 55.6269L41.8397 55.5986C41.8341 55.5277 41.8284 55.4568 41.8241 55.3865L41.8206 55.3101C41.8191 55.2569 41.8177 55.2036 41.8182 55.1496L41.8166 55.0276C41.8172 54.9896 41.8192 54.952 41.8212 54.9145C41.8231 54.877 41.8241 54.8055 41.8257 54.7567C41.8275 54.7318 41.8292 54.707 41.8324 54.6827C41.8372 54.6176 41.8421 54.5524 41.8497 54.4884C41.8551 54.4745 41.8536 54.458 41.8563 54.4431C41.8644 54.3697 41.8774 54.2918 41.887 54.2269C41.8908 54.2172 41.8946 54.2075 41.8915 54.1951C41.9048 54.1206 41.9181 54.046 41.9342 53.9725L41.9467 53.9407C41.9624 53.8682 41.9794 53.7966 41.9975 53.7261L42.016 53.679C42.0404 53.6168 42.0524 53.5497 42.0713 53.4853L42.1018 53.4079C42.1224 53.3553 42.1425 53.3042 42.1631 53.2516C42.1838 53.1991 42.1936 53.1742 42.2088 53.1355C42.224 53.0968 42.2392 53.058 42.2544 53.0193C42.2696 52.9806 42.2946 52.917 42.3152 52.8645L42.3457 52.787C42.3701 52.7248 42.4056 52.6669 42.437 52.6074L42.4554 52.5604C42.4909 52.4945 42.5277 52.4292 42.5649 52.3672L42.5773 52.3354C42.6156 52.2706 42.6566 52.2069 42.6975 52.1432C42.7013 52.1335 42.7051 52.1238 42.7159 52.1168C42.7552 52.0573 42.7992 51.99 42.84 51.939C42.8454 51.9251 42.8509 51.9113 42.866 51.9013C42.904 51.8492 42.9448 51.7982 42.9856 51.7472C42.9943 51.725 43.0154 51.7078 43.031 51.6884C43.0647 51.6474 43.1003 51.6055 43.1351 51.5697C43.1699 51.5339 43.1833 51.512 43.2088 51.4837C43.2343 51.4554 43.2641 51.424 43.2929 51.3954C43.3217 51.3669 43.3667 51.3175 43.4039 51.2794L43.458 51.2273C43.509 51.1787 43.5614 51.1306 43.6138 51.0826L43.6354 51.0639C44.0407 50.7056 44.4977 50.4105 44.9912 50.1887L45.0085 50.1812C45.0765 50.1504 45.1447 50.123 45.2108 50.101L45.2766 50.0758C45.3294 50.0551 45.385 50.0354 45.4387 50.0166L45.5474 49.9795L45.6799 49.9389L45.8159 49.9014L45.8732 49.8856L59.6096 46.3946C60.2953 46.2203 61.0086 46.1829 61.7088 46.2844C62.409 46.3858 63.0823 46.6242 63.6903 46.986C64.2984 47.3477 64.8292 47.8256 65.2525 48.3925C65.6758 48.9594 65.9832 49.6041 66.1573 50.2899C66.5046 51.6719 66.2902 53.1351 65.561 54.3594C64.8318 55.5836 63.6472 56.469 62.2666 56.8218Z" fill="#4285F4" stroke="#1E1E1E" stroke-width="2" stroke-miterlimit="10"/>
<path d="M17.0816 -13.5293L18.7541 -11.2922C18.8958 -11.1027 18.9987 -10.8871 19.057 -10.6578C19.1153 -10.4285 19.1279 -10.19 19.0939 -9.95586C19.06 -9.72172 18.9803 -9.49655 18.8593 -9.29324C18.7383 -9.08994 18.5784 -8.91247 18.3887 -8.77099L10.3935 -2.79358C8.47988 -1.36235 7.21312 0.770372 6.87181 3.1355C6.53049 5.50063 7.14256 7.90448 8.57342 9.81837L12.3403 14.8569C12.3967 14.9324 12.4676 14.9959 12.5487 15.0437C12.6298 15.0916 12.7197 15.1229 12.813 15.1358C12.9063 15.1487 13.0013 15.1429 13.0923 15.1188C13.1834 15.0947 13.2688 15.0528 13.3435 14.9954L21.44 8.94237C21.5161 8.88691 21.5805 8.81687 21.6294 8.73634C21.6783 8.6558 21.7107 8.56636 21.7247 8.4732C21.7387 8.38004 21.7342 8.28503 21.7112 8.19367C21.6882 8.1023 21.6474 8.0164 21.591 7.94095L18.8212 4.23615C18.5391 3.85422 18.419 3.37652 18.4869 2.90662C18.5547 2.43672 18.8051 2.01252 19.1837 1.726L41.0848 -14.6477C41.4676 -14.9333 41.9482 -15.0553 42.421 -14.9868C42.8937 -14.9183 43.3199 -14.6649 43.606 -14.2823L46.3757 -10.5775C46.4913 -10.4269 46.6617 -10.3279 46.8498 -10.3022C47.0379 -10.2764 47.2286 -10.326 47.3804 -10.4401L55.4768 -16.4931C55.626 -16.6076 55.7246 -16.7758 55.7515 -16.9619C55.7783 -17.148 55.7314 -17.3372 55.6207 -17.4892L51.8537 -22.5278C50.4229 -24.4417 48.2904 -25.7088 45.9254 -26.0506C43.5603 -26.3924 41.1563 -25.7808 39.2422 -24.3503L30.885 -18.1023C30.5024 -17.8163 30.0219 -17.6938 29.5491 -17.7619C29.0763 -17.8299 28.6498 -18.0829 28.3634 -18.4652L26.6909 -20.7023C26.5755 -20.8527 26.4055 -20.9516 26.2177 -20.9776C26.0299 -21.0035 25.8395 -20.9544 25.6877 -20.8408L17.2308 -14.5183C17.0827 -14.4048 16.9845 -14.2383 16.9566 -14.0539C16.9288 -13.8694 16.9736 -13.6814 17.0816 -13.5293Z" fill="#CCF6CF" stroke="#1E1E1E" stroke-width="3" stroke-linejoin="round"/>
<path d="M58.1565 20.615L56.485 18.3793C56.3417 18.1899 56.2372 17.974 56.1777 17.7441C56.1181 17.5142 56.1046 17.2748 56.138 17.0397C56.1714 16.8045 56.2509 16.5783 56.3721 16.3741C56.4933 16.1698 56.6536 15.9915 56.844 15.8495L64.8392 9.87211C65.7868 9.16367 66.5856 8.27553 67.19 7.25838C67.7943 6.24124 68.1924 5.11501 68.3615 3.94402C68.5306 2.77302 68.4674 1.5802 68.1756 0.433627C67.8837 -0.712946 67.3688 -1.79081 66.6604 -2.7384L62.8935 -7.77694C62.7799 -7.92892 62.611 -8.0301 62.4235 -8.05861C62.2359 -8.08713 62.0446 -8.0407 61.891 -7.92935L53.7945 -1.8763C53.6411 -1.76159 53.5395 -1.59062 53.5122 -1.40101C53.4848 -1.21141 53.5338 -1.01869 53.6485 -0.865256L56.4119 2.83099C56.5538 3.02034 56.6569 3.2358 56.7155 3.46503C56.774 3.69427 56.7868 3.9328 56.7531 4.16698C56.7194 4.40116 56.6399 4.6264 56.5191 4.82982C56.3983 5.03325 56.2385 5.21086 56.0491 5.35253L34.1408 21.7316C33.758 22.0178 33.2772 22.1402 32.8041 22.0719C32.331 22.0036 31.9044 21.7501 31.6182 21.3673L28.8548 17.671C28.7983 17.595 28.7273 17.5308 28.6459 17.4823C28.5645 17.4337 28.4743 17.4017 28.3805 17.388C28.2868 17.3744 28.1912 17.3793 28.0993 17.4027C28.0075 17.426 27.9211 17.4672 27.8452 17.5239L19.7488 23.577C19.6729 23.6337 19.6089 23.7049 19.5606 23.7864C19.5122 23.8679 19.4804 23.9582 19.467 24.052C19.4535 24.1458 19.4587 24.2413 19.4823 24.3331C19.5058 24.4249 19.5473 24.5112 19.6042 24.587L23.3711 29.6255C24.0796 30.5731 24.9677 31.3719 25.9849 31.9762C27.002 32.5806 28.1282 32.9787 29.2992 33.1478C30.4702 33.3169 31.663 33.2537 32.8096 32.9618C33.9562 32.6699 35.034 32.1551 35.9816 31.4466L44.3445 25.1944C44.534 25.0524 44.7496 24.9492 44.979 24.8907C45.2084 24.8322 45.4471 24.8195 45.6814 24.8533C45.9157 24.8872 46.141 24.9669 46.3445 25.0879C46.548 25.2089 46.7256 25.3689 46.8671 25.5587L48.5439 27.8015C48.6569 27.9527 48.8254 28.0527 49.0122 28.0797C49.199 28.1067 49.3888 28.0584 49.54 27.9453L58.0041 21.6174C58.1564 21.5041 58.2579 21.3353 58.2865 21.1476C58.315 20.9598 58.2683 20.7684 58.1565 20.615Z" fill="#CCF6CF" stroke="#1E1E1E" stroke-width="3" stroke-linejoin="round"/>
<path d="M79.2994 30.1329C81.6745 32.2539 85.3193 32.0479 87.4403 29.6728C89.5613 27.2977 89.3553 23.6528 86.9802 21.5318C84.6051 19.4108 80.9603 19.6168 78.8393 21.9919C76.7183 24.367 76.9242 28.0119 79.2994 30.1329Z" fill="#FFD427" stroke="#1E1E1E" stroke-width="2" stroke-miterlimit="10"/>
<path d="M184.302 15.4415C186.677 17.5625 190.322 17.3565 192.443 14.9814C194.564 12.6063 194.358 8.96143 191.983 6.84042C189.608 4.71942 185.963 4.92541 183.842 7.30053C181.721 9.67564 181.927 13.3205 184.302 15.4415Z" fill="#FFD427" stroke="#1E1E1E" stroke-width="2" stroke-miterlimit="10"/>
<path d="M144.283 55.8195C144.977 55.0421 145.447 54.0912 145.644 53.0679C145.84 52.0445 145.756 50.987 145.4 50.0078C145.043 49.0286 144.428 48.1642 143.62 47.5067C142.811 46.8492 141.84 46.4231 140.808 46.2737C139.777 46.1243 138.724 46.2572 137.763 46.6582C136.801 47.0592 135.966 47.7135 135.346 48.5513C134.726 49.3891 134.345 50.3792 134.243 51.4162C134.142 52.4533 134.323 53.4986 134.768 54.441C134.939 54.8441 134.846 55.2697 134.21 55.4498L127.093 57.9434C127.042 57.957 126.994 57.9805 126.953 58.0125C126.911 58.0445 126.877 58.0844 126.851 58.1299C126.825 58.1754 126.808 58.2256 126.802 58.2776C126.795 58.3297 126.799 58.3824 126.813 58.4329L127.75 62.3801C127.763 62.4315 127.786 62.4797 127.818 62.5221C127.85 62.5644 127.89 62.5999 127.936 62.6265C127.981 62.6532 128.032 62.6704 128.084 62.6772C128.137 62.684 128.19 62.6801 128.241 62.666C128.241 62.666 140.769 58.0402 141.741 57.608C142.203 57.4025 142.644 57.1509 143.055 56.8569C143.511 56.5702 143.924 56.221 144.283 55.8195Z" fill="#FFD427" stroke="#1E1E1E" stroke-width="2" stroke-miterlimit="10"/>
<path d="M123.811 24.0991C122.314 24.9243 121.064 26.1331 120.189 27.6011C119.313 29.0692 118.845 30.7437 118.83 32.4528C118.831 32.5188 118.815 32.5839 118.783 32.6416C118.751 32.6992 118.704 32.7474 118.647 32.7813C118.591 32.8152 118.526 32.8336 118.46 32.8347C118.394 32.8358 118.329 32.8196 118.271 32.7876C116.807 31.9871 115.16 31.5797 113.491 31.6051C111.822 31.6305 110.189 32.0879 108.749 32.9326C107.31 33.7773 106.114 34.9805 105.278 36.4249C104.442 37.8694 103.995 39.5058 103.979 41.1747C103.979 41.2407 103.961 41.3055 103.928 41.3625C103.895 41.4196 103.848 41.467 103.79 41.4999C103.733 41.5328 103.668 41.5501 103.602 41.5501C103.536 41.55 103.471 41.5327 103.414 41.4997C101.915 40.6786 100.224 40.2712 98.5157 40.3193C96.807 40.3674 95.1419 40.8693 93.6912 41.7734C89.4135 44.4257 87.9008 50.3044 90.3665 54.6457C93.0063 59.291 98.9536 60.8553 103.578 58.1418C105.019 57.2993 106.218 56.0964 107.054 54.6511C107.891 53.2058 108.338 51.5678 108.35 49.8978C108.351 49.8324 108.368 49.7682 108.401 49.7116C108.433 49.6549 108.48 49.6078 108.536 49.5747C108.593 49.5416 108.657 49.5237 108.722 49.5229C108.787 49.522 108.852 49.5382 108.909 49.5698C110.374 50.3703 112.02 50.7777 113.689 50.7523C115.358 50.7269 116.992 50.2695 118.431 49.4248C119.87 48.5801 121.066 47.3769 121.902 45.9325C122.738 44.488 123.186 42.8516 123.201 41.1827C123.201 41.1174 123.219 41.0532 123.251 40.9966C123.284 40.9399 123.331 40.8927 123.387 40.8596C123.444 40.8265 123.508 40.8087 123.573 40.8078C123.638 40.807 123.703 40.8231 123.76 40.8548C125.224 41.6584 126.872 42.0674 128.542 42.0417C130.212 42.0161 131.846 41.5566 133.285 40.7084C137.91 37.9944 139.448 32.0417 136.675 27.4699C134.081 23.2005 128.212 21.658 123.811 24.0991Z" fill="#F8D8D8" stroke="#1E1E1E" stroke-width="2" stroke-miterlimit="10"/>
<path d="M201.406 46.0296C199.824 46.9022 198.502 48.1803 197.577 49.7326C196.651 51.2849 196.155 53.0555 196.14 54.8626C196.141 54.9324 196.124 55.0012 196.09 55.0622C196.056 55.1231 196.007 55.1741 195.947 55.2099C195.887 55.2458 195.819 55.2653 195.749 55.2664C195.679 55.2676 195.61 55.2504 195.549 55.2166C194.001 54.3702 192.259 53.9394 190.495 53.9663C188.73 53.9932 187.003 54.4767 185.481 55.3699C183.959 56.263 182.694 57.5353 181.81 59.0626C180.927 60.5899 180.453 62.3202 180.437 64.0848C180.437 64.1546 180.418 64.2231 180.383 64.2835C180.348 64.3438 180.298 64.3939 180.238 64.4287C180.177 64.4635 180.108 64.4818 180.039 64.4818C179.969 64.4817 179.9 64.4634 179.84 64.4285C178.255 63.5603 176.467 63.1296 174.66 63.1804C172.853 63.2313 171.093 63.7619 169.559 64.7179C165.036 67.5223 163.436 73.7383 166.043 78.3287C168.835 83.2405 175.123 84.8946 180.012 82.0254C181.537 81.1346 182.804 79.8626 183.689 78.3344C184.573 76.8062 185.046 75.0742 185.059 73.3084C185.059 73.2393 185.078 73.1714 185.112 73.1115C185.147 73.0516 185.196 73.0017 185.256 72.9667C185.315 72.9317 185.383 72.9129 185.452 72.912C185.521 72.9111 185.589 72.9282 185.65 72.9616C187.198 73.808 188.94 74.2388 190.704 74.2119C192.469 74.185 194.196 73.7015 195.718 72.8083C197.24 71.9152 198.505 70.6429 199.388 69.1156C200.272 67.5883 200.746 65.858 200.762 64.0934C200.762 64.0242 200.78 63.9564 200.815 63.8965C200.849 63.8366 200.899 63.7867 200.958 63.7517C201.018 63.7167 201.086 63.6979 201.155 63.6969C201.224 63.696 201.292 63.7131 201.353 63.7466C202.901 64.5963 204.643 65.0288 206.409 65.0016C208.174 64.9745 209.903 64.4886 211.424 63.5918C216.314 60.7221 217.94 54.4279 215.009 49.5938C212.266 45.0795 206.061 43.4485 201.406 46.0296Z" fill="#57CAFF" stroke="#1E1E1E" stroke-width="2" stroke-miterlimit="10"/>
<path d="M213.423 17.0859L214.737 18.8439C214.849 18.9928 214.93 19.1622 214.976 19.3423C215.021 19.5225 215.031 19.71 215.005 19.894C214.978 20.078 214.915 20.2549 214.82 20.4147C214.725 20.5744 214.599 20.7139 214.45 20.8251L208.167 25.5223C206.664 26.647 205.668 28.323 205.4 30.1816C205.132 32.0402 205.613 33.9292 206.737 35.4332L209.697 39.3927C209.742 39.452 209.797 39.5019 209.861 39.5395C209.925 39.5771 209.995 39.6017 210.069 39.6118C210.142 39.6219 210.217 39.6174 210.288 39.5985C210.36 39.5795 210.427 39.5466 210.486 39.5015L216.848 34.7448C216.908 34.7012 216.959 34.6462 216.997 34.5829C217.035 34.5196 217.061 34.4493 217.072 34.3761C217.083 34.3029 217.079 34.2283 217.061 34.1565C217.043 34.0847 217.011 34.0172 216.967 33.9579L214.79 31.0465C214.569 30.7464 214.474 30.371 214.527 30.0017C214.581 29.6325 214.778 29.2991 215.075 29.074L232.286 16.207C232.587 15.9825 232.964 15.8866 233.336 15.9405C233.707 15.9943 234.042 16.1934 234.267 16.4941L236.443 19.4054C236.534 19.5238 236.668 19.6016 236.816 19.6218C236.964 19.6421 237.114 19.6031 237.233 19.5135L243.595 14.7568C243.713 14.6669 243.79 14.5347 243.811 14.3884C243.832 14.2422 243.795 14.0934 243.708 13.974L240.748 10.0146C239.624 8.51056 237.948 7.51477 236.09 7.24618C234.231 6.9776 232.342 7.45823 230.838 8.58235L224.27 13.4922C223.97 13.717 223.592 13.8132 223.221 13.7597C222.849 13.7063 222.514 13.5075 222.289 13.2071L220.974 11.4491C220.884 11.3309 220.75 11.2531 220.603 11.2328C220.455 11.2124 220.305 11.251 220.186 11.3402L213.54 16.3087C213.424 16.3979 213.347 16.5287 213.325 16.6736C213.303 16.8186 213.338 16.9663 213.423 17.0859Z" fill="#FFE7A5" stroke="#1E1E1E" stroke-width="3" stroke-linejoin="round"/>
<path d="M245.701 43.9173L244.388 42.1604C244.275 42.0116 244.193 41.842 244.146 41.6613C244.1 41.4806 244.089 41.2925 244.115 41.1077C244.141 40.9229 244.204 40.7452 244.299 40.5847C244.394 40.4241 244.52 40.284 244.67 40.1724L250.953 35.4752C251.698 34.9185 252.325 34.2205 252.8 33.4212C253.275 32.6219 253.588 31.7369 253.721 30.8167C253.854 29.8965 253.804 28.9591 253.575 28.0581C253.345 27.1571 252.941 26.3101 252.384 25.5654L249.424 21.606C249.335 21.4866 249.202 21.4071 249.055 21.3846C248.907 21.3622 248.757 21.3987 248.636 21.4862L242.274 26.2429C242.153 26.3331 242.073 26.4674 242.052 26.6164C242.03 26.7654 242.069 26.9169 242.159 27.0374L244.33 29.9421C244.442 30.0909 244.523 30.2602 244.569 30.4403C244.615 30.6204 244.625 30.8079 244.599 30.9919C244.572 31.1759 244.51 31.3529 244.415 31.5128C244.32 31.6727 244.194 31.8122 244.045 31.9236L226.829 44.7947C226.528 45.0197 226.15 45.1159 225.779 45.0622C225.407 45.0085 225.072 44.8093 224.847 44.5085L222.675 41.6038C222.631 41.5441 222.575 41.4937 222.511 41.4555C222.447 41.4173 222.376 41.3922 222.302 41.3814C222.229 41.3707 222.154 41.3746 222.082 41.3929C222.009 41.4113 221.941 41.4437 221.882 41.4883L215.519 46.2449C215.46 46.2895 215.409 46.3455 215.371 46.4095C215.333 46.4736 215.308 46.5445 215.298 46.6182C215.287 46.6919 215.291 46.767 215.31 46.8391C215.328 46.9113 215.361 46.9791 215.406 47.0386L218.366 50.9981C218.923 51.7427 219.621 52.3704 220.42 52.8453C221.219 53.3203 222.104 53.6331 223.024 53.766C223.945 53.8989 224.882 53.8492 225.783 53.6198C226.684 53.3905 227.531 52.9859 228.276 52.4292L234.848 47.5159C234.996 47.4044 235.166 47.3233 235.346 47.2773C235.526 47.2313 235.714 47.2213 235.898 47.2479C236.082 47.2745 236.259 47.3372 236.419 47.4323C236.579 47.5274 236.719 47.6531 236.83 47.8022L238.148 49.5647C238.236 49.6835 238.369 49.7621 238.515 49.7833C238.662 49.8045 238.812 49.7665 238.93 49.6777L245.582 44.7051C245.701 44.616 245.781 44.4833 245.804 44.3358C245.826 44.1883 245.789 44.0379 245.701 43.9173Z" fill="#FFE7A5" stroke="#1E1E1E" stroke-width="3" stroke-linejoin="round"/>
<path d="M87.6708 59.7305L93.0648 68.0839L83.4267 70.5346C82.4055 70.7938 81.4454 71.2517 80.6012 71.882C79.757 72.5124 79.0453 73.3028 78.5066 74.2083C77.968 75.1137 77.613 76.1164 77.4619 77.1591C77.3107 78.2018 77.3665 79.264 77.626 80.2851C77.8852 81.3062 78.3431 82.2663 78.9734 83.1105C79.6038 83.9547 80.3943 84.6665 81.2997 85.2051C82.2051 85.7438 83.2078 86.0988 84.2505 86.2499C85.2932 86.401 86.3554 86.3452 87.3765 86.0858L107.834 80.8879L107.917 80.8636L108.12 80.8077L108.318 80.7452C108.372 80.7285 108.426 80.7117 108.479 80.6921C108.532 80.6724 108.642 80.6348 108.723 80.6047L108.819 80.5663L109.12 80.4469L109.146 80.4357C109.879 80.1026 110.559 79.6613 111.162 79.1267C111.171 79.1161 111.181 79.1065 111.192 79.0981C111.272 79.0274 111.348 78.955 111.424 78.8826L111.505 78.8029L111.673 78.6309L111.796 78.4987L111.908 78.3715C111.96 78.3112 112.013 78.2488 112.061 78.1939L112.131 78.1072C112.192 78.0315 112.251 77.9547 112.307 77.8768C112.315 77.8562 112.333 77.8397 112.347 77.8215C112.411 77.7324 112.476 77.6342 112.533 77.5546C112.538 77.5398 112.543 77.5254 112.55 77.5113C112.611 77.4165 112.672 77.3216 112.729 77.2251C112.734 77.209 112.741 77.1932 112.748 77.1778C112.802 77.0825 112.857 76.9832 112.908 76.8913C112.917 76.8686 112.926 76.8439 112.935 76.8213C112.972 76.7286 113.026 76.6432 113.069 76.553L113.114 76.4377C113.145 76.3594 113.175 76.2832 113.216 76.209L113.352 75.8631C113.382 75.7869 113.412 75.7107 113.432 75.6285L113.478 75.5131C113.514 75.4205 113.534 75.3214 113.562 75.2255C113.571 75.2028 113.581 75.1781 113.59 75.1555C113.618 75.0476 113.644 74.939 113.668 74.8345C113.673 74.8183 113.679 74.8025 113.687 74.7872C113.711 74.6777 113.73 74.5667 113.75 74.4557C113.755 74.4409 113.761 74.4264 113.767 74.4124C113.783 74.3067 113.803 74.1887 113.812 74.0925C113.82 74.0719 113.818 74.0473 113.82 74.0243C113.831 73.9286 113.84 73.8324 113.848 73.7357L113.856 73.6247C113.861 73.5458 113.864 73.4641 113.864 73.3905L113.869 73.2212L113.869 73.0405L113.863 72.8006L113.857 72.6889C113.851 72.5842 113.844 72.4795 113.834 72.3731C113.832 72.3594 113.831 72.3455 113.831 72.3316C113.751 71.5297 113.551 70.7444 113.237 70.0019L113.226 69.9761C113.183 69.8736 113.136 69.7745 113.086 69.6836L113.042 69.5902C113.004 69.5132 112.965 69.4362 112.923 69.3605L112.842 69.2098L112.739 69.0313C112.703 68.972 112.668 68.9106 112.629 68.8525L112.584 68.778L101.134 51.0458C100.563 50.1607 99.8224 49.3969 98.9556 48.7979C98.0889 48.199 97.1127 47.7766 96.0827 47.555C95.0527 47.3333 93.9891 47.3168 92.9528 47.5062C91.9164 47.6957 90.9274 48.0874 90.0425 48.6591C88.2631 49.8155 87.0144 51.6299 86.5699 53.7049C86.1254 55.78 86.5213 57.9467 87.6708 59.7305Z" fill="#C3ECF6" stroke="#1E1E1E" stroke-width="4" stroke-miterlimit="10"/>
<path d="M118.67 2.73049L124.064 11.0839L114.426 13.5346C113.405 13.7938 112.444 14.2517 111.6 14.882C110.756 15.5124 110.044 16.3028 109.506 17.2083C108.967 18.1137 108.612 19.1164 108.461 20.1591C108.31 21.2018 108.366 22.264 108.625 23.2851C108.884 24.3062 109.342 25.2663 109.972 26.1105C110.603 26.9547 111.393 27.6665 112.299 28.2051C113.204 28.7438 114.207 29.0988 115.25 29.2499C116.292 29.401 117.354 29.3452 118.376 29.0858L138.833 23.8879L138.916 23.8636L139.119 23.8077L139.317 23.7452C139.371 23.7285 139.425 23.7117 139.478 23.6921C139.531 23.6724 139.641 23.6348 139.722 23.6047L139.818 23.5663L140.119 23.4469L140.145 23.4357C140.878 23.1026 141.558 22.6613 142.161 22.1267C142.17 22.1161 142.18 22.1065 142.191 22.0981C142.271 22.0274 142.347 21.955 142.423 21.8826L142.504 21.8029L142.672 21.6309L142.795 21.4987L142.907 21.3715C142.959 21.3112 143.012 21.2488 143.06 21.1939L143.13 21.1072C143.191 21.0315 143.25 20.9547 143.306 20.8768C143.314 20.8562 143.332 20.8397 143.346 20.8215C143.41 20.7324 143.475 20.6342 143.532 20.5546C143.537 20.5398 143.542 20.5254 143.549 20.5113C143.61 20.4165 143.671 20.3216 143.728 20.2251C143.733 20.209 143.74 20.1932 143.747 20.1778C143.801 20.0825 143.856 19.9832 143.907 19.8913C143.916 19.8686 143.925 19.8439 143.934 19.8213C143.971 19.7286 144.025 19.6432 144.068 19.553L144.113 19.4377C144.144 19.3594 144.174 19.2832 144.215 19.209L144.351 18.8631C144.381 18.7869 144.411 18.7107 144.431 18.6285L144.477 18.5131C144.513 18.4205 144.533 18.3214 144.561 18.2255C144.57 18.2028 144.58 18.1781 144.589 18.1555C144.617 18.0476 144.643 17.939 144.667 17.8345C144.672 17.8183 144.678 17.8025 144.686 17.7872C144.71 17.6777 144.729 17.5667 144.749 17.4557C144.754 17.4409 144.76 17.4264 144.766 17.4124C144.782 17.3067 144.802 17.1887 144.811 17.0925C144.819 17.0719 144.817 17.0473 144.819 17.0243C144.83 16.9286 144.839 16.8324 144.847 16.7357L144.855 16.6247C144.86 16.5458 144.863 16.4641 144.864 16.3905L144.868 16.2212L144.868 16.0405L144.862 15.8006L144.856 15.6889C144.85 15.5842 144.844 15.4795 144.833 15.3731C144.831 15.3594 144.83 15.3455 144.83 15.3316C144.75 14.5297 144.55 13.7444 144.236 13.0019L144.225 12.9761C144.182 12.8736 144.135 12.7745 144.085 12.6836L144.041 12.5902C144.003 12.5132 143.964 12.4362 143.922 12.3605L143.841 12.2098L143.738 12.0313C143.702 11.972 143.667 11.9106 143.628 11.8525L143.583 11.778L132.133 -5.95419C131.562 -6.83928 130.821 -7.60311 129.955 -8.20207C129.088 -8.80103 128.112 -9.22339 127.082 -9.44503C126.052 -9.66666 124.988 -9.68323 123.952 -9.49378C122.915 -9.30434 121.926 -8.91259 121.042 -8.34091C119.262 -7.18451 118.013 -5.37012 117.569 -3.29505C117.124 -1.21998 117.52 0.946668 118.67 2.73049Z" fill="#FF7DAF" stroke="#1E1E1E" stroke-width="4" stroke-miterlimit="10"/>
<path d="M13.3832 37.0367L12.9964 44.6513L9.40699 41.5111C9.0268 41.1781 8.61659 40.9941 8.1998 40.9694C7.78301 40.9447 7.3678 41.0799 6.97789 41.3672C6.58798 41.6546 6.23099 42.0884 5.92733 42.644C5.62367 43.1996 5.37927 43.8661 5.2081 44.6054C5.03686 45.3446 4.94218 46.1421 4.92949 46.9524C4.91679 47.7628 4.98632 48.5701 5.13411 49.3282C5.2819 50.0862 5.50505 50.7803 5.79082 51.3707C6.07659 51.9611 6.41937 52.4363 6.7996 52.7691L14.4174 59.4368L14.4491 59.462L14.5257 59.5253L14.6024 59.5826C14.6233 59.5984 14.6442 59.6142 14.6654 59.6277C14.6866 59.6412 14.7299 59.6712 14.7624 59.6917L14.8015 59.7145L14.9242 59.7869L14.935 59.7925C15.2444 59.9433 15.5636 60.0031 15.8821 59.9698C15.8875 59.9678 15.893 59.9669 15.8985 59.9671C15.9407 59.9629 15.9821 59.9557 16.0234 59.9485L16.0683 59.9393L16.1625 59.916L16.2332 59.8953L16.2992 59.8723C16.3302 59.8609 16.362 59.8488 16.3903 59.8386L16.4333 59.8197C16.4709 59.8035 16.508 59.7854 16.5445 59.7653C16.5521 59.7568 16.5619 59.7556 16.5708 59.7515C16.6124 59.7283 16.6567 59.7001 16.6941 59.6797C16.6992 59.673 16.7045 59.667 16.71 59.6618C16.7523 59.6339 16.7945 59.606 16.8359 59.5751C16.8416 59.568 16.8474 59.5614 16.8534 59.5555C16.8936 59.524 16.9353 59.4908 16.9735 59.4596C16.9819 59.4502 16.991 59.44 16.9993 59.4306C17.0334 59.3922 17.0715 59.3671 17.1069 59.3332L17.1493 59.2854C17.1781 59.253 17.2061 59.2215 17.2371 59.1964L17.3644 59.0532C17.3925 59.0216 17.4205 58.9901 17.4471 58.9503L17.4896 58.9025C17.5237 58.8642 17.5543 58.814 17.5866 58.7697C17.5949 58.7604 17.604 58.7501 17.6124 58.7407C17.6476 58.6893 17.6825 58.6363 17.7158 58.5851C17.7213 58.5777 17.7271 58.5712 17.7332 58.5655C17.7676 58.511 17.8011 58.4537 17.8346 58.3963C17.8397 58.3896 17.845 58.3836 17.8505 58.3784C17.8813 58.3221 17.9166 58.2607 17.9432 58.2072C17.9508 58.1987 17.9562 58.1828 17.9624 58.1698C17.9893 58.1173 18.0158 58.0638 18.0421 58.0093L18.0719 57.9463C18.0928 57.9011 18.1141 57.8536 18.1323 57.8095L18.1755 57.7098L18.2199 57.6008L18.2773 57.4536L18.3029 57.3834C18.3268 57.3173 18.3506 57.2512 18.3735 57.1821C18.3763 57.1729 18.3794 57.1641 18.3829 57.1558C18.5555 56.6343 18.6869 56.0654 18.7728 55.4681L18.7756 55.4472C18.7876 55.3649 18.7975 55.2829 18.8045 55.2042L18.8138 55.1268C18.8208 55.0619 18.8278 54.997 18.8336 54.9315L18.8456 54.802L18.8575 54.6449C18.861 54.5919 18.8652 54.538 18.8674 54.4844L18.872 54.4182L19.6933 38.2544C19.7343 37.4476 19.6931 36.633 19.5722 35.8572C19.4512 35.0813 19.2529 34.3593 18.9884 33.7325C18.7239 33.1057 18.3985 32.5864 18.0308 32.2041C17.6631 31.8218 17.2603 31.5841 16.8453 31.5046C16.0092 31.3488 15.1754 31.8435 14.5266 32.8804C13.8777 33.9173 13.4666 35.4118 13.3832 37.0367Z" fill="#57CAFF" stroke="#1E1E1E" stroke-miterlimit="10"/>
<path d="M26.5327 81.2075L22.9441 78.0664L22.5565 85.6818C22.5155 86.4886 22.3931 87.2717 22.1964 87.9865C21.9997 88.7014 21.7326 89.3338 21.4101 89.8479C21.0877 90.3619 20.7164 90.7475 20.3173 90.9825C19.9182 91.2175 19.4993 91.2973 19.0843 91.2175C18.6694 91.1379 18.2665 90.9002 17.8988 90.518C17.5311 90.1357 17.2057 89.6163 16.9412 88.9895C16.6768 88.3627 16.4784 87.6407 16.3575 86.8649C16.2365 86.089 16.1954 85.2744 16.2364 84.4676L17.0581 68.3053L17.0622 68.2377L17.0721 68.0771L17.0848 67.9192L17.096 67.7905C17.1023 67.7265 17.1088 67.6601 17.1162 67.5967L17.1251 67.5178L17.154 67.2749L17.1569 67.254C17.2433 66.657 17.3757 66.0889 17.5496 65.5689L17.5585 65.5412C17.5819 65.4736 17.6053 65.406 17.6291 65.3398L17.6555 65.2688C17.6744 65.2201 17.6932 65.1713 17.7133 65.1231L17.7573 65.0127C17.7715 64.9789 17.7862 64.9467 17.8009 64.9144C17.8156 64.8822 17.8422 64.8188 17.8609 64.7761C17.8708 64.7551 17.8807 64.7341 17.8911 64.7145C17.9172 64.6596 17.9434 64.6046 17.9704 64.5526C17.9779 64.5441 17.9833 64.5282 17.99 64.5167C18.0207 64.4566 18.0553 64.3961 18.0835 64.3447C18.0888 64.3387 18.0941 64.3327 18.0972 64.3194C18.1307 64.262 18.1642 64.2046 18.1986 64.1502L18.216 64.1306C18.2499 64.0767 18.284 64.0247 18.3182 63.9743L18.344 63.9453C18.3781 63.9069 18.4082 63.8553 18.4406 63.811L18.483 63.7633C18.5118 63.7309 18.5399 63.6993 18.5687 63.6669C18.5974 63.6345 18.6111 63.6192 18.6323 63.5953C18.6535 63.5714 18.6747 63.5475 18.696 63.5237C18.7172 63.4998 18.752 63.4606 18.7808 63.4282L18.8233 63.3804C18.8574 63.342 18.895 63.3154 18.9313 63.2844L18.957 63.2555C18.9976 63.2217 19.0385 63.1893 19.0784 63.1602L19.0958 63.1406C19.1372 63.1097 19.1795 63.0818 19.2218 63.0539C19.2271 63.0479 19.2324 63.042 19.2399 63.0434C19.2799 63.018 19.3249 62.989 19.3624 62.9724C19.37 62.9639 19.3776 62.9553 19.3882 62.9571C19.4249 62.9375 19.4624 62.9208 19.4999 62.9042C19.5121 62.8905 19.5281 62.8902 19.5425 62.8839C19.5731 62.8711 19.6048 62.8589 19.634 62.8516C19.6632 62.8444 19.6774 62.8343 19.6996 62.8271C19.7217 62.8199 19.747 62.8131 19.7708 62.8079C19.7945 62.8028 19.8334 62.7906 19.8645 62.7831L19.9086 62.7748C19.9499 62.7676 19.9917 62.7619 20.0335 62.7561L20.0504 62.7549C20.3688 62.7225 20.6879 62.7839 20.9968 62.9369L21.0076 62.9425C21.0502 62.9634 21.0918 62.9874 21.1303 63.0149L21.1699 63.0392C21.2019 63.0582 21.2348 63.0803 21.2664 63.1017L21.3302 63.146L21.4062 63.2041L21.4827 63.2674L21.5149 63.2941L29.1322 69.9603C29.5124 70.2931 29.8552 70.7683 30.141 71.3587C30.4268 71.9491 30.6499 72.6432 30.7977 73.4013C30.9455 74.1593 31.015 74.9666 31.0023 75.777C30.9896 76.5873 30.895 77.3848 30.7237 78.124C30.377 79.6112 29.7412 80.7707 28.9558 81.3486C28.1703 81.9265 27.299 81.8758 26.5327 81.2075Z" fill="#57CAFF" stroke="#1E1E1E" stroke-miterlimit="10"/>
<path d="M282.044 62.9291L272.991 65.2294L278.057 73.0788C278.594 73.9102 278.962 74.8393 279.14 75.8129C279.317 76.7865 279.302 77.7856 279.093 78.7531C278.885 79.7206 278.488 80.6376 277.925 81.4517C277.362 82.2658 276.645 82.9611 275.813 83.4978C274.982 84.0349 274.053 84.4029 273.079 84.5809C272.106 84.7588 271.106 84.7433 270.139 84.5351C269.171 84.3268 268.254 83.9301 267.44 83.3674C266.626 82.8047 265.93 82.0871 265.393 81.2557L254.639 64.5983L254.595 64.5275L254.491 64.3595L254.395 64.1899L254.318 64.0503C254.281 63.9799 254.243 63.9068 254.208 63.8352L254.165 63.7467L254.034 63.472L254.023 63.4478C253.73 62.7496 253.545 62.0112 253.473 61.2575L253.468 61.2178C253.46 61.1187 253.452 61.0195 253.446 60.9211L253.441 60.8143C253.439 60.7398 253.437 60.6653 253.438 60.5897L253.436 60.4191C253.437 60.3659 253.439 60.3134 253.442 60.2608C253.445 60.2083 253.446 60.1084 253.449 60.0401C253.451 60.0053 253.453 59.9705 253.458 59.9366C253.465 59.8454 253.471 59.7543 253.482 59.6647C253.49 59.6454 253.488 59.6222 253.491 59.6014C253.503 59.4986 253.521 59.3897 253.534 59.2989C253.54 59.2854 253.545 59.2718 253.541 59.2545C253.559 59.1502 253.578 59.0459 253.6 58.9431L253.618 58.8986C253.64 58.7971 253.664 58.697 253.689 58.5983L253.715 58.5325C253.749 58.4454 253.766 58.3516 253.792 58.2615L253.835 58.1532C253.864 58.0796 253.892 58.0081 253.921 57.9346C253.949 57.8611 253.963 57.8262 253.984 57.7721C254.006 57.7179 254.027 57.6638 254.048 57.6096C254.07 57.5554 254.104 57.4664 254.133 57.3929L254.176 57.2846C254.21 57.1976 254.26 57.1166 254.304 57.0333L254.329 56.9676C254.379 56.8754 254.431 56.784 254.483 56.6972L254.5 56.6528C254.554 56.5621 254.611 56.473 254.668 56.3839C254.673 56.3703 254.679 56.3568 254.694 56.3471C254.749 56.2637 254.81 56.1696 254.867 56.0982C254.875 56.0789 254.883 56.0595 254.904 56.0455C254.957 55.9726 255.014 55.9012 255.071 55.8299C255.083 55.7989 255.113 55.7748 255.135 55.7477C255.182 55.6903 255.232 55.6317 255.28 55.5816C255.329 55.5315 255.348 55.5009 255.383 55.4613C255.419 55.4217 255.461 55.3779 255.501 55.3379C255.541 55.2979 255.604 55.2288 255.656 55.1756L255.732 55.1026C255.803 55.0346 255.877 54.9673 255.95 54.9001L255.98 54.8741C256.547 54.3727 257.187 53.9599 257.877 53.6497L257.901 53.6392C257.996 53.5961 258.092 53.5577 258.184 53.527L258.276 53.4917C258.35 53.4627 258.428 53.4352 258.503 53.4089L258.655 53.357L258.84 53.3003L259.031 53.2478L259.111 53.2257L278.327 48.3419C279.287 48.0981 280.285 48.0457 281.264 48.1877C282.244 48.3296 283.186 48.6631 284.036 49.1692C284.887 49.6752 285.629 50.3438 286.221 51.1369C286.814 51.93 287.244 52.8319 287.487 53.7912C287.973 55.7245 287.673 57.7716 286.653 59.4843C285.633 61.1969 283.976 62.4356 282.044 62.9291Z" fill="#FF7DAF" stroke="#1E1E1E" stroke-width="2" stroke-miterlimit="10"/>
<path d="M178.962 39.0137C177.543 43.0208 179.642 47.4191 183.649 48.8374C187.656 50.2558 192.054 48.1572 193.473 44.1501C194.891 40.143 192.793 35.7447 188.785 34.3263C184.778 32.908 180.38 35.0066 178.962 39.0137Z" fill="#FFE7A5" stroke="#1E1E1E" stroke-width="2" stroke-miterlimit="10"/>
<path d="M166.102 42.627C167.414 43.0909 168.827 43.1907 170.19 42.9159C171.554 42.641 172.817 42.0018 173.847 41.066C174.876 40.1303 175.633 38.9331 176.036 37.6017C176.439 36.2704 176.474 34.8546 176.136 33.5051C175.799 32.1555 175.103 30.9226 174.121 29.9374C173.138 28.9521 171.908 28.2515 170.559 27.9099C169.211 27.5684 167.795 27.5986 166.462 27.9975C165.13 28.3964 163.93 29.149 162.991 30.1753C162.58 30.5913 162.007 30.6918 161.463 29.9976L154.781 22.4664C154.739 22.4107 154.686 22.364 154.625 22.3289C154.565 22.2939 154.498 22.2711 154.429 22.2621C154.359 22.253 154.289 22.2578 154.221 22.2761C154.154 22.2945 154.09 22.326 154.035 22.3689L149.633 25.524C149.577 25.5658 149.529 25.6187 149.492 25.6793C149.456 25.74 149.432 25.8073 149.423 25.8773C149.413 25.9473 149.417 26.0185 149.435 26.0868C149.454 26.1551 149.485 26.219 149.529 26.2749C149.529 26.2749 161.581 39.4094 162.607 40.3921C163.095 40.8591 163.628 41.2756 164.2 41.6353C164.785 42.0533 165.425 42.3871 166.102 42.627Z" fill="#FFE7A5" stroke="#1E1E1E" stroke-width="2" stroke-miterlimit="10"/>
<path d="M274.962 17.0137C273.543 21.0208 275.642 25.4191 279.649 26.8374C283.656 28.2558 288.054 26.1572 289.473 22.1501C290.891 18.143 288.793 13.7447 284.785 12.3263C280.778 10.908 276.38 13.0066 274.962 17.0137Z" fill="#CCF6C5" stroke="#1E1E1E" stroke-width="2" stroke-miterlimit="10"/>
<path d="M262.102 20.627C263.414 21.0909 264.827 21.1907 266.19 20.9159C267.554 20.641 268.817 20.0018 269.847 19.066C270.876 18.1303 271.633 16.9331 272.036 15.6017C272.439 14.2704 272.474 12.8546 272.136 11.5051C271.799 10.1555 271.103 8.92257 270.121 7.93736C269.138 6.95215 267.908 6.25151 266.559 5.90994C265.211 5.56836 263.795 5.59863 262.462 5.99752C261.13 6.39642 259.93 7.14902 258.991 8.17531C258.58 8.5913 258.007 8.6918 257.463 7.99756L250.781 0.466421C250.739 0.410744 250.686 0.364018 250.625 0.328944C250.565 0.293869 250.498 0.271139 250.429 0.262075C250.359 0.253011 250.289 0.257774 250.221 0.276118C250.154 0.294461 250.09 0.326004 250.035 0.368927L245.633 3.52398C245.577 3.56583 245.529 3.61866 245.492 3.67935C245.456 3.74003 245.432 3.80735 245.423 3.87733C245.413 3.94731 245.417 4.01855 245.435 4.08682C245.454 4.1551 245.485 4.21904 245.529 4.27488C245.529 4.27488 257.581 17.4094 258.607 18.3921C259.095 18.8591 259.628 19.2756 260.2 19.6353C260.785 20.0533 261.425 20.3871 262.102 20.627Z" fill="#CCF6C5" stroke="#1E1E1E" stroke-width="2" stroke-miterlimit="10"/>
</g>
<rect x="0.5" y="0.5" width="286" height="75" rx="3.5" stroke="#D6E4FD"/>
<defs>
<clipPath id="clip0_818_4833">
<rect width="287" height="76" rx="4" fill="white"/>
</clipPath>
</defs>
</svg>
