<svg width="1440" height="800" viewBox="0 0 1440 800" fill="none" xmlns="http://www.w3.org/2000/svg">
<g clip-path="url(#clip0_407_1157)">
<path d="M1169.63 634.765L1201.4 683.967L1144.63 698.402C1138.61 699.929 1132.96 702.626 1127.99 706.339C1123.01 710.052 1118.82 714.707 1115.65 720.041C1112.48 725.374 1110.39 731.28 1109.5 737.421C1108.61 743.563 1108.93 749.819 1110.46 755.834C1111.99 761.849 1114.69 767.504 1118.4 772.476C1122.11 777.448 1126.77 781.641 1132.1 784.813C1137.43 787.986 1143.34 790.077 1149.48 790.967C1155.62 791.857 1161.88 791.529 1167.89 790.001L1288.39 759.384L1288.88 759.241L1290.08 758.912L1291.24 758.544C1291.56 758.445 1291.88 758.347 1292.19 758.231C1292.5 758.115 1293.15 757.893 1293.63 757.716L1294.19 757.49L1295.96 756.787L1296.12 756.721C1300.44 754.759 1304.44 752.16 1307.99 749.01C1308.05 748.948 1308.11 748.892 1308.17 748.842C1308.64 748.426 1309.09 747.999 1309.54 747.573L1310.02 747.103L1311 746.091L1311.73 745.312L1312.39 744.562C1312.69 744.207 1313.01 743.84 1313.29 743.516L1313.7 743.006C1314.06 742.56 1314.41 742.107 1314.74 741.649C1314.78 741.528 1314.89 741.43 1314.98 741.323C1315.35 740.798 1315.73 740.22 1316.07 739.751C1316.1 739.664 1316.13 739.579 1316.17 739.496C1316.53 738.937 1316.89 738.379 1317.22 737.81C1317.25 737.715 1317.29 737.622 1317.33 737.531C1317.65 736.97 1317.98 736.385 1318.28 735.844C1318.33 735.71 1318.39 735.565 1318.44 735.431C1318.65 734.886 1318.98 734.383 1319.23 733.851L1319.49 733.172C1319.67 732.711 1319.85 732.262 1320.09 731.825L1320.89 729.788C1321.07 729.339 1321.25 728.89 1321.37 728.406L1321.63 727.726C1321.85 727.181 1321.96 726.597 1322.13 726.032C1322.18 725.899 1322.24 725.753 1322.29 725.62C1322.46 724.985 1322.61 724.345 1322.75 723.729C1322.78 723.634 1322.82 723.541 1322.86 723.45C1323.01 722.806 1323.12 722.152 1323.24 721.498C1323.27 721.411 1323.3 721.326 1323.34 721.243C1323.43 720.621 1323.55 719.925 1323.6 719.359C1323.65 719.237 1323.64 719.092 1323.65 718.957C1323.71 718.393 1323.77 717.827 1323.81 717.257L1323.86 716.604C1323.89 716.139 1323.91 715.657 1323.91 715.224L1323.94 714.227L1323.94 713.162L1323.9 711.749L1323.87 711.091C1323.83 710.474 1323.79 709.858 1323.73 709.231C1323.72 709.15 1323.72 709.069 1323.72 708.987C1323.24 704.264 1322.06 699.638 1320.22 695.264L1320.15 695.112C1319.9 694.509 1319.62 693.925 1319.33 693.39L1319.07 692.84C1318.84 692.386 1318.61 691.933 1318.37 691.487L1317.89 690.599L1317.28 689.548C1317.07 689.198 1316.86 688.836 1316.63 688.494L1316.37 688.056L1248.93 583.611C1245.56 578.397 1241.2 573.898 1236.1 570.37C1230.99 566.842 1225.24 564.355 1219.17 563.049C1213.11 561.744 1206.84 561.646 1200.74 562.762C1194.63 563.878 1188.81 566.185 1183.6 569.553C1173.12 576.364 1165.76 587.051 1163.14 599.273C1160.52 611.496 1162.86 624.258 1169.63 634.765Z" fill="#FF7DAF" stroke="#1E1E1E" stroke-width="6.51529" stroke-miterlimit="10"/>
<path d="M1533.22 777.596L1476.46 792.018L1508.22 841.233C1511.59 846.446 1513.9 852.271 1515.01 858.376C1516.12 864.48 1516.03 870.744 1514.72 876.811C1513.41 882.877 1510.92 888.626 1507.4 893.731C1503.87 898.835 1499.37 903.194 1494.15 906.559C1488.94 909.927 1483.12 912.234 1477.01 913.35C1470.91 914.466 1464.64 914.368 1458.58 913.063C1452.51 911.757 1446.76 909.27 1441.65 905.742C1436.55 902.214 1432.19 897.715 1428.82 892.501L1361.39 788.061L1361.12 787.618L1360.47 786.564L1359.86 785.501L1359.38 784.625C1359.15 784.184 1358.91 783.726 1358.69 783.277L1358.42 782.722L1357.6 781L1357.53 780.848C1355.7 776.47 1354.53 771.84 1354.08 767.115L1354.05 766.866C1354 766.244 1353.95 765.623 1353.92 765.006L1353.88 764.336C1353.87 763.869 1353.86 763.402 1353.86 762.928L1353.85 761.858C1353.85 761.524 1353.87 761.195 1353.89 760.866C1353.91 760.537 1353.91 759.91 1353.93 759.482C1353.94 759.264 1353.96 759.046 1353.99 758.833C1354.03 758.261 1354.07 757.69 1354.14 757.128C1354.19 757.007 1354.17 756.862 1354.2 756.731C1354.27 756.087 1354.38 755.404 1354.47 754.835C1354.5 754.75 1354.53 754.665 1354.51 754.556C1354.62 753.902 1354.74 753.248 1354.88 752.604L1354.99 752.325C1355.13 751.688 1355.28 751.061 1355.44 750.442L1355.6 750.029C1355.81 749.484 1355.92 748.895 1356.08 748.33L1356.35 747.651C1356.53 747.19 1356.71 746.741 1356.89 746.28C1357.07 745.82 1357.16 745.601 1357.29 745.262C1357.42 744.922 1357.56 744.582 1357.69 744.243C1357.82 743.903 1358.04 743.345 1358.22 742.885L1358.49 742.205C1358.7 741.659 1359.02 741.152 1359.29 740.63L1359.45 740.218C1359.76 739.64 1360.09 739.067 1360.41 738.523L1360.52 738.244C1360.86 737.675 1361.22 737.117 1361.58 736.558C1361.61 736.473 1361.64 736.388 1361.74 736.327C1362.08 735.805 1362.47 735.214 1362.83 734.767C1362.87 734.645 1362.92 734.524 1363.05 734.436C1363.39 733.979 1363.75 733.532 1364.1 733.084C1364.18 732.89 1364.36 732.739 1364.5 732.569C1364.8 732.209 1365.11 731.842 1365.41 731.528C1365.72 731.214 1365.84 731.022 1366.06 730.773C1366.28 730.525 1366.55 730.25 1366.8 729.999C1367.05 729.749 1367.45 729.315 1367.77 728.982L1368.25 728.524C1368.69 728.098 1369.15 727.676 1369.61 727.255L1369.8 727.092C1373.36 723.948 1377.37 721.36 1381.69 719.415L1381.85 719.349C1382.44 719.079 1383.04 718.838 1383.62 718.646L1384.2 718.424C1384.66 718.242 1385.15 718.07 1385.62 717.905L1386.57 717.58L1387.74 717.224L1388.93 716.895L1389.43 716.756L1509.92 686.135C1515.93 684.607 1522.19 684.278 1528.33 685.168C1534.47 686.058 1540.38 688.15 1545.71 691.322C1551.04 694.495 1555.7 698.687 1559.41 703.66C1563.13 708.632 1565.82 714.287 1567.35 720.302C1570.4 732.424 1568.51 745.259 1562.12 755.997C1555.72 766.735 1545.33 774.501 1533.22 777.596Z" fill="#FF7DAF" stroke="#1E1E1E" stroke-width="6.51529" stroke-miterlimit="10"/>
<path d="M-116.412 722.08L-103.333 739.575C-102.225 741.057 -101.42 742.742 -100.964 744.536C-100.508 746.329 -100.41 748.194 -100.675 750.025C-100.94 751.856 -101.564 753.617 -102.51 755.207C-103.456 756.797 -104.707 758.184 -106.19 759.291L-168.714 806.035C-183.679 817.228 -193.585 833.906 -196.254 852.402C-198.923 870.897 -194.137 889.696 -182.947 904.663L-153.489 944.065C-153.048 944.655 -152.494 945.151 -151.86 945.526C-151.225 945.9 -150.523 946.145 -149.793 946.246C-149.063 946.346 -148.321 946.301 -147.608 946.113C-146.896 945.924 -146.228 945.597 -145.644 945.148L-82.3286 897.812C-81.7331 897.378 -81.2296 896.831 -80.8474 896.201C-80.4651 895.571 -80.2118 894.872 -80.102 894.143C-79.9922 893.415 -80.028 892.672 -80.2076 891.957C-80.3871 891.243 -80.7068 890.571 -81.1479 889.981L-102.808 861.009C-105.014 858.022 -105.953 854.286 -105.422 850.612C-104.892 846.937 -102.934 843.62 -99.9733 841.379L71.2969 713.334C74.2909 711.1 78.0492 710.146 81.7461 710.682C85.443 711.218 88.7761 713.199 91.0129 716.191L112.673 745.163C113.577 746.342 114.909 747.115 116.38 747.317C117.851 747.518 119.343 747.131 120.53 746.238L183.845 698.903C185.012 698.008 185.782 696.692 185.993 695.237C186.203 693.781 185.836 692.301 184.97 691.113L155.512 651.711C144.322 636.744 127.646 626.834 109.151 624.161C90.6559 621.489 71.8565 626.272 56.8874 637.458L-8.4672 686.319C-11.459 688.555 -15.2165 689.513 -18.9139 688.981C-22.6114 688.449 -25.9463 686.47 -28.186 683.481L-41.2655 665.986C-42.1677 664.81 -43.4972 664.036 -44.9658 663.834C-46.4343 663.631 -47.9235 664.015 -49.1108 664.903L-115.245 714.346C-116.403 715.234 -117.171 716.535 -117.389 717.978C-117.607 719.42 -117.256 720.891 -116.412 722.08Z" fill="#CCF6CF" stroke="#1E1E1E" stroke-width="6.95652" stroke-linejoin="round"/>
<path d="M204.797 989.096L191.726 971.613C190.605 970.132 189.789 968.444 189.323 966.646C188.857 964.848 188.752 962.976 189.013 961.137C189.273 959.298 189.896 957.529 190.843 955.932C191.791 954.335 193.045 952.94 194.533 951.83L257.058 905.086C264.468 899.545 270.715 892.6 275.441 884.646C280.167 876.692 283.28 867.884 284.602 858.727C285.925 849.57 285.431 840.241 283.148 831.275C280.866 822.309 276.839 813.88 271.299 806.469L241.841 767.067C240.953 765.879 239.633 765.087 238.166 764.864C236.699 764.641 235.203 765.005 234.002 765.875L170.686 813.211C169.486 814.108 168.692 815.445 168.478 816.928C168.264 818.411 168.648 819.918 169.545 821.118L191.155 850.023C192.264 851.504 193.071 853.188 193.528 854.981C193.986 856.774 194.086 858.639 193.823 860.471C193.559 862.302 192.937 864.063 191.993 865.654C191.048 867.245 189.799 868.634 188.317 869.742L16.9912 997.828C13.9974 1000.07 10.2372 1001.02 6.53767 1000.49C2.83811 999.955 -0.497768 997.973 -2.73597 994.979L-24.3461 966.074C-24.7884 965.479 -25.3437 964.978 -25.9802 964.598C-26.6167 964.218 -27.3217 963.968 -28.0551 963.861C-28.7885 963.754 -29.5358 963.793 -30.2541 963.976C-30.9725 964.158 -31.6478 964.48 -32.2414 964.924L-95.5568 1012.26C-96.1504 1012.7 -96.6505 1013.26 -97.0287 1013.9C-97.4069 1014.53 -97.6556 1015.24 -97.7607 1015.97C-97.8657 1016.71 -97.825 1017.46 -97.6409 1018.17C-97.4567 1018.89 -97.1326 1019.57 -96.6874 1020.16L-67.2296 1059.56C-61.6894 1066.97 -54.7439 1073.22 -46.7897 1077.94C-38.8355 1082.67 -30.0284 1085.78 -20.871 1087.1C-11.7136 1088.43 -2.38542 1087.93 6.58096 1085.65C15.5473 1083.37 23.9763 1079.34 31.3867 1073.8L96.7858 1024.91C98.2675 1023.8 99.9535 1022.99 101.747 1022.53C103.541 1022.08 105.408 1021.98 107.24 1022.24C109.073 1022.51 110.835 1023.13 112.426 1024.08C114.017 1025.02 115.406 1026.27 116.513 1027.76L129.626 1045.3C130.509 1046.48 131.827 1047.26 133.287 1047.47C134.748 1047.68 136.233 1047.3 137.415 1046.42L203.606 996.936C204.797 996.05 205.591 994.729 205.814 993.261C206.037 991.793 205.672 990.296 204.797 989.096Z" fill="#CCF6CF" stroke="#1E1E1E" stroke-width="6.95652" stroke-linejoin="round"/>
<path d="M987.828 692.452C1010.06 712.305 1044.17 710.377 1064.03 688.146C1083.88 665.915 1081.95 631.799 1059.72 611.946C1037.49 592.094 1003.37 594.022 983.521 616.253C963.668 638.484 965.596 672.6 987.828 692.452Z" fill="#FFD427" stroke="#1E1E1E" stroke-width="6.18603" stroke-miterlimit="10"/>
<path d="M977.094 785.493C983.59 778.216 987.992 769.316 989.833 759.737C991.673 750.159 990.884 740.261 987.548 731.095C984.211 721.93 978.454 713.839 970.887 707.685C963.32 701.531 954.226 697.542 944.573 696.144C934.92 694.745 925.069 695.989 916.066 699.743C907.064 703.497 899.247 709.62 893.447 717.462C887.647 725.304 884.08 734.571 883.127 744.278C882.173 753.985 883.869 763.769 888.032 772.59C889.639 776.363 888.768 780.347 882.818 782.032L816.194 805.373C815.72 805.5 815.276 805.719 814.887 806.019C814.499 806.318 814.174 806.692 813.931 807.118C813.687 807.544 813.531 808.014 813.471 808.501C813.41 808.988 813.447 809.482 813.579 809.954L822.352 846.9C822.473 847.381 822.688 847.832 822.985 848.228C823.283 848.625 823.657 848.957 824.085 849.207C824.513 849.456 824.987 849.617 825.478 849.68C825.97 849.744 826.469 849.708 826.946 849.576C826.946 849.576 944.201 806.278 953.304 802.233C957.631 800.31 961.751 797.954 965.604 795.202C969.87 792.52 973.738 789.251 977.094 785.493Z" fill="#FFD427" stroke="#1E1E1E" stroke-width="6.18603" stroke-miterlimit="10"/>
<path d="M668.707 623.497C652.817 632.259 639.545 645.091 630.253 660.677C620.961 676.263 615.984 694.041 615.833 712.186C615.843 712.887 615.668 713.578 615.327 714.19C614.985 714.802 614.489 715.314 613.888 715.674C613.286 716.034 612.601 716.229 611.9 716.241C611.2 716.253 610.508 716.08 609.895 715.741C594.348 707.242 576.864 702.917 559.147 703.187C541.431 703.456 524.087 708.312 508.805 717.28C493.524 726.247 480.826 739.022 471.951 754.357C463.076 769.692 458.325 787.066 458.163 804.783C458.16 805.484 457.974 806.172 457.622 806.778C457.27 807.384 456.765 807.887 456.157 808.236C455.55 808.586 454.861 808.77 454.16 808.769C453.46 808.769 452.771 808.584 452.164 808.234C436.247 799.517 418.297 795.192 400.157 795.703C382.016 796.213 364.338 801.541 348.937 811.14C303.522 839.298 287.462 901.711 313.64 947.801C341.666 997.12 404.806 1013.73 453.897 984.918C469.206 975.974 481.926 963.203 490.81 947.859C499.693 932.514 504.435 915.124 504.568 897.394C504.572 896.7 504.755 896.019 505.102 895.418C505.448 894.816 505.945 894.315 506.544 893.964C507.142 893.612 507.822 893.423 508.516 893.414C509.21 893.405 509.894 893.577 510.502 893.912C526.049 902.41 543.533 906.736 561.25 906.466C578.966 906.196 596.31 901.341 611.592 892.373C626.873 883.405 639.571 870.631 648.446 855.296C657.321 839.96 662.072 822.587 662.234 804.869C662.238 804.175 662.422 803.494 662.768 802.892C663.114 802.291 663.611 801.79 664.21 801.439C664.808 801.087 665.488 800.898 666.182 800.889C666.876 800.88 667.56 801.052 668.168 801.387C683.711 809.919 701.206 814.261 718.935 813.989C736.663 813.716 754.016 808.838 769.29 799.833C818.39 771.019 834.72 707.822 805.285 659.284C777.746 613.957 715.438 597.581 668.707 623.497Z" fill="#F8D8D8" stroke="#1E1E1E" stroke-width="5" stroke-miterlimit="10"/>
<path d="M309.1 715.23C345.282 741.3 395.747 733.103 421.818 696.922C447.888 660.74 439.691 610.275 403.51 584.205C367.328 558.134 316.863 566.331 290.792 602.513C264.722 638.694 272.919 689.16 309.1 715.23Z" fill="#4285F4" stroke="#1E1E1E" stroke-width="8.95405" stroke-miterlimit="10"/>
<path d="M191.514 878.423C227.695 904.494 278.161 896.297 304.231 860.115C330.301 823.934 322.104 773.468 285.923 747.398C249.741 721.328 199.276 729.525 173.206 765.706C147.135 801.888 155.332 852.353 191.514 878.423Z" fill="#4285F4" stroke="#1E1E1E" stroke-width="8.95405" stroke-miterlimit="10"/>
<path d="M1553.09 476.22V416.76C1553.09 415.699 1552.67 414.682 1551.92 413.932C1551.17 413.181 1550.15 412.76 1549.09 412.76H1517.4V383C1517.4 381.939 1516.98 380.922 1516.23 380.172C1515.48 379.421 1514.46 379 1513.4 379H1453.94C1452.88 379 1451.86 379.421 1451.11 380.172C1450.36 380.922 1449.94 381.939 1449.94 383V412.76H1416.09V383C1416.09 381.939 1415.67 380.922 1414.92 380.172C1414.17 379.421 1413.15 379 1412.09 379H1352.65C1351.59 379 1350.57 379.421 1349.82 380.172C1349.07 380.922 1348.65 381.939 1348.65 383V412.76H1317C1315.94 412.76 1314.92 413.181 1314.17 413.932C1313.42 414.682 1313 415.699 1313 416.76V476.22C1313 477.281 1313.42 478.298 1314.17 479.048C1314.92 479.799 1315.94 480.22 1317 480.22H1348.65V514.05H1317C1315.94 514.05 1314.92 514.471 1314.17 515.222C1313.42 515.972 1313 516.989 1313 518.05V577.51C1313 578.571 1313.42 579.588 1314.17 580.338C1314.92 581.089 1315.94 581.51 1317 581.51H1348.65V611.27C1348.65 612.331 1349.07 613.348 1349.82 614.098C1350.57 614.849 1351.59 615.27 1352.65 615.27H1412.09C1413.15 615.27 1414.17 614.849 1414.92 614.098C1415.67 613.348 1416.09 612.331 1416.09 611.27V581.51H1449.92V611.27C1449.92 612.331 1450.34 613.348 1451.09 614.098C1451.84 614.849 1452.86 615.27 1453.92 615.27H1513.38C1514.44 615.27 1515.46 614.849 1516.21 614.098C1516.96 613.348 1517.38 612.331 1517.38 611.27V581.51H1549.09C1550.15 581.51 1551.17 581.089 1551.92 580.338C1552.67 579.588 1553.09 578.571 1553.09 577.51V518.05C1553.09 516.989 1552.67 515.972 1551.92 515.222C1551.17 514.471 1550.15 514.05 1549.09 514.05H1517.4V480.22H1549.09C1550.15 480.22 1551.17 479.799 1551.92 479.048C1552.67 478.298 1553.09 477.281 1553.09 476.22ZM1449.94 514.05H1416.09V480.22H1449.92L1449.94 514.05Z" fill="#34A853" stroke="#1E1E1E" stroke-width="5" stroke-linejoin="round"/>
<path d="M148 465.12H62V381C62 379.939 61.5786 378.922 60.8284 378.172C60.0783 377.421 59.0609 377 58 377H5.99999C4.93913 377 3.92171 377.421 3.17156 378.172C2.42142 378.922 1.99999 379.939 1.99999 381V465.12H-84C-85.0609 465.12 -86.0783 465.541 -86.8284 466.292C-87.5786 467.042 -88 468.059 -88 469.12V521.12C-88 522.181 -87.5786 523.198 -86.8284 523.948C-86.0783 524.699 -85.0609 525.12 -84 525.12H1.99999V609.23C1.99999 610.291 2.42142 611.308 3.17156 612.058C3.92171 612.809 4.93913 613.23 5.99999 613.23H58C59.0609 613.23 60.0783 612.809 60.8284 612.058C61.5786 611.308 62 610.291 62 609.23V525.13H148C149.061 525.13 150.078 524.709 150.828 523.958C151.579 523.208 152 522.191 152 521.13V469.13C152.001 468.604 151.899 468.083 151.698 467.596C151.498 467.11 151.204 466.668 150.832 466.295C150.46 465.923 150.019 465.627 149.533 465.425C149.047 465.224 148.526 465.12 148 465.12Z" fill="#EA4335" stroke="#1E1E1E" stroke-width="5" stroke-linejoin="round"/>
</g>
<defs>
<clipPath id="clip0_407_1157">
<rect width="1440" height="800" fill="white"/>
</clipPath>
</defs>
</svg>
